<svg width="50" height="30" xmlns="http://www.w3.org/2000/svg">
  <defs>
    <linearGradient x1="48.422%" y1="57.296%" x2="58.836%" y2="37.692%" id="a">
      <stop stop-color="#004384" offset="0%"/>
      <stop stop-color="#63B9E3" offset="100%"/>
    </linearGradient>
  </defs>
  <g fill="none">
    <rect fill="#FFF" width="50" height="30" rx="2"/>
    <path d="M43.206 23.653H12.35a1.539 1.539 0 0 1-1.533-1.54v-3.088c0-.847.686-1.534 1.533-1.534h30.856a1.54 1.54 0 0 1 1.539 1.534v3.089a1.55 1.55 0 0 1-1.539 1.539Z" fill="#BCDCF1"/>
    <path d="M39.529 20.348H8.457A2.468 2.468 0 0 1 6 17.88V8.457A2.468 2.468 0 0 1 8.457 6h31.06a2.468 2.468 0 0 1 2.463 2.457v9.423a2.457 2.457 0 0 1-2.451 2.468Z" fill="#004384"/>
    <path d="M12.361 17.34a1.517 1.517 0 0 0-1.506 1.512v1.512h28.706a2.43 2.43 0 0 0 2.42-2.414v-.61h-29.62Z" fill="#63B8E2"/>
    <path d="M30.224 14.5c-1.134 0-1.706-.481-1.706-1.448V8.16h1.36v4.86c0 .184.109.275.325.275h2.198c.216 0 .329-.091.329-.275V8.16h1.382v4.86c0 .967-.572 1.447-1.711 1.447l-2.177.033Z" fill="#FFF"/>
    <path d="M11.108 3.31C10.687 2.516 9.67 1.15 7.328 0H2.419a2.446 2.446 0 0 0-2.3 1.696c-.227.67 9.218 3.925 10.989 4.536V3.31Z" fill="url(#a)" transform="translate(6 6)"/>
    <path d="m8.894 8.068-.075-.102a.297.297 0 0 0-.13-.065.373.373 0 0 0-.151 0 .47.47 0 0 0-.238.054.437.437 0 0 0-.162.151.718.718 0 0 0-.091.205 1.233 1.233 0 0 0 0 .243 1.134 1.134 0 0 0 0 .232c.018.072.05.14.091.2.04.064.096.116.162.151a.47.47 0 0 0 .238.054.389.389 0 0 0 .28-.145.475.475 0 0 0 .13-.308h.41a.983.983 0 0 1-.08.324.675.675 0 0 1-.178.243.718.718 0 0 1-.254.156 1.042 1.042 0 0 1-.713-.021.815.815 0 0 1-.48-.513 1.161 1.161 0 0 1 0-.767.929.929 0 0 1 .183-.319.859.859 0 0 1 .297-.216.977.977 0 0 1 .389-.08c.1-.01.2-.003.297.021.09.031.175.075.254.13a.74.74 0 0 1 .275.508h-.405a.405.405 0 0 0-.049-.136ZM8.695 9.78l.712 1.9H8.97l-.151-.404h-.702l-.146.426h-.416l.724-1.922h.416Zm0 1.166-.243-.69-.222.712.465-.022Zm.032 1.091c.15 0 .294.056.405.157a.427.427 0 0 1 .108.167c.027.063.04.131.038.2a.61.61 0 0 1-.065.292.491.491 0 0 1-.227.183.367.367 0 0 1 .13.065.54.54 0 0 1 .124.238.421.421 0 0 1 0 .14v.103a.967.967 0 0 0 0 .124v.124a.313.313 0 0 0 .043.097h-.421a.761.761 0 0 1-.043-.216v-.237a.324.324 0 0 0-.092-.216.308.308 0 0 0-.227-.07h-.383v.75h-.416v-1.9h1.026v-.001Zm-.146.864a.297.297 0 0 0 .21-.065.243.243 0 0 0 .076-.205.248.248 0 0 0-.048-.205.297.297 0 0 0-.21-.06h-.46v.54l.432-.005Zm-.88 1.739v-.346h1.555v.346h-.572v1.55h-.405v-1.55h-.578Zm1.517 1.874v.35H8.214v.406h.923v.324h-.923v.464H9.24v.362H7.798v-1.906h1.42Zm5.06-8.354c1.156 0 1.734.54 1.734 1.663v.162a1.22 1.22 0 0 1-.638 1.167c.548.259.866.84.789 1.441v.206c0 1.123-.654 1.69-1.95 1.69h-3.666V8.16h3.731Zm-.124 2.538c.362 0 .54-.205.54-.616V9.92c0-.4-.184-.599-.54-.599h-2.22v1.388h2.22v-.011Zm.065 2.63c.389 0 .594-.249.594-.745v-.206c0-.415-.2-.631-.594-.631h-2.268v1.582h2.268Zm7.56 1.193h-2.322c-1.572 0-2.37-.691-2.37-2.057V8.16h1.452v4.32c0 .54.297.832.912.832h2.328v1.225-.016Zm5.648 0h-2.878c-1.582 0-2.381-.691-2.381-2.057V8.16h5.243v1.21h-3.78v1.306h3.78v1.15h-3.78v.654c0 .54.302.832.913.832h2.9l-.017 1.21v-.001Zm7.803-2.041V8.16h5.179v1.183h-3.78v1.371h3.78v1.08h-3.78v.686c0 .572.313.859.95.859h2.868v1.171h-2.868" fill="#FFF"/>
    <path d="M40.463 14.521h-2.884c-1.577 0-2.376-.691-2.376-2.057V8.16h5.238v1.21h-3.78v1.306h3.78v1.15h-3.78v.654c0 .54.303.832.918.832h2.884v1.21-.001Z" fill="#FFF"/>
  </g>
</svg>
